<?xml version="1.0" encoding="UTF-8" standalone="no"?>
<!DOCTYPE svg PUBLIC "-//W3C//DTD SVG 1.1//EN" "http://www.w3.org/Graphics/SVG/1.1/DTD/svg11.dtd">
<svg version="1.1" xmlns="http://www.w3.org/2000/svg" xmlns:xlink="http://www.w3.org/1999/xlink" preserveAspectRatio="xMidYMid meet" viewBox="0 0 640 640" width="640" height="640"><defs><path d="" id="a2kGOKqmmI"></path><path d="M120.99 274.46L129.9 263.56L141.78 249.7L150.69 241.78L162.57 238.81L173.47 238.81L178.42 251.68L178.42 263.56L172.48 274.46L182.38 263.56L188.32 272.48L184.36 282.38L192.28 273.47L203.17 273.47L212.08 264.55L220.99 259.6L220.99 247.72L232.87 246.73L233.86 262.57L225.94 274.46L216.04 287.33L208.12 300.2L202.18 309.11L207.13 289.31L218.02 278.42L231.88 268.51L244.75 263.56L257.62 260.59L255.64 271.49L247.72 283.37L261.58 275.45L266.53 264.55L270.5 251.68L273.47 241.78L277.43 230.89L275.45 251.68L271.49 266.53L267.52 280.4" id="d57Ed8SOAW"></path></defs><g><g><g><g><use xlink:href="#a2kGOKqmmI" opacity="1" fill-opacity="0" stroke="#000000" stroke-width="1" stroke-opacity="1"></use></g></g><g><g><use xlink:href="#d57Ed8SOAW" opacity="1" fill-opacity="0" stroke="#000000" stroke-width="1" stroke-opacity="1"></use></g></g></g></g></svg>